<svg xmlns="http://www.w3.org/2000/svg" width="160" height="160" viewBox="0 0 160 160">
  <g id="Group_57533" data-name="Group 57533" transform="translate(11600 10677)">
    <rect id="Rectangle_35876" data-name="Rectangle 35876" width="160" height="160" transform="translate(-11600 -10677)" fill="none"/>
    <g id="Group_57534" data-name="Group 57534" transform="translate(0 0)">
      <g id="Path_18714" data-name="Path 18714" transform="translate(-11557 -10629)" fill="#f8f8f8">
        <path d="M 81.33360290527344 60.00466918945312 C 81.25878143310547 60.00466918945312 81.18653106689453 60.00366973876953 81.11272430419922 60.00157928466797 L 81.05638122558594 59.99999618530273 L 81 59.99999618530273 L 12.21958351135254 59.99999618530273 L -0.03041647747159004 3.99999737739563 L 98.94481658935547 3.99999737739563 L 91.05442047119141 51.3423957824707 L 91.03052520751953 51.48575973510742 L 91.01711273193359 51.63048934936523 C 90.73585510253906 54.66208648681641 89.02957916259766 56.60888671875 87.64772796630859 57.70821380615234 C 85.84020233154297 59.14619827270508 83.47978210449219 60.00466918945312 81.33360290527344 60.00466918945312 Z" stroke="none"/>
        <path d="M 4.939163208007812 8.000003814697266 L 15.43925476074219 56.00041961669922 L 81.33356475830078 56.00467681884766 C 83.11056518554688 56.00467681884766 86.72699737548828 54.57224273681641 87.10884857177734 50.68480682373047 L 94.22298431396484 8.000003814697266 L 4.939163208007812 8.000003814697266 M -5 7.62939453125e-06 L 99 7.62939453125e-06 C 101.2091293334961 7.62939453125e-06 103 1.790851593017578 103 4.000003814697266 L 95 52.00000381469727 C 94.28514862060547 59.70507049560547 87.02730560302734 64.16991424560547 81 64.00000762939453 L 9 64.00000762939453 L -5 7.62939453125e-06 Z" stroke="none" fill="#ccc"/>
      </g>
      <path id="Path_18715" data-name="Path 18715" d="M-11594.987-12261.274h10.766s4.609-.083,7.631,2.146,3.971,6.883,3.971,6.883l20.331,83.794h69.276" transform="translate(9.68 1615.728)" fill="none" stroke="#ccc" stroke-linecap="round" stroke-linejoin="round" stroke-width="8"/>
      <g id="Ellipse_954" data-name="Ellipse 954" transform="translate(-11493 -10546)" fill="#fff" stroke="#ccc" stroke-width="8">
        <circle cx="10" cy="10" r="10" stroke="none"/>
        <circle cx="10" cy="10" r="6" fill="none"/>
      </g>
      <g id="Ellipse_955" data-name="Ellipse 955" transform="translate(-11540 -10546)" fill="#fff" stroke="#ccc" stroke-width="8">
        <circle cx="10" cy="10" r="10" stroke="none"/>
        <circle cx="10" cy="10" r="6" fill="none"/>
      </g>
      <path id="Path_18716" data-name="Path 18716" d="M-11552-12270.948v16" transform="translate(46 1606.052)" fill="none" stroke="#ccc" stroke-linecap="round" stroke-width="8"/>
      <path id="Path_18717" data-name="Path 18717" d="M0,0V16" transform="translate(-11478 -10656.999) rotate(30)" fill="none" stroke="#ccc" stroke-linecap="round" stroke-width="8"/>
      <path id="Path_18718" data-name="Path 18718" d="M0,0V16" transform="translate(-11534.001 -10657.288) rotate(-30)" fill="none" stroke="#ccc" stroke-linecap="round" stroke-width="8"/>
    </g>
  </g>
</svg>
